<?xml version="1.0" standalone="no"?>
<!DOCTYPE svg PUBLIC "-//W3C//DTD SVG 20010904//EN"
 "http://www.w3.org/TR/2001/REC-SVG-20010904/DTD/svg10.dtd">
<svg version="1.0" xmlns="http://www.w3.org/2000/svg"
 width="680.000000pt" height="680.000000pt" viewBox="0 0 680.000000 680.000000"
 preserveAspectRatio="xMidYMid meet">
<metadata>
Created by potrace 1.11, written by Peter Selinger 2001-2013
</metadata>
<g transform="translate(0.000000,680.000000) scale(0.100000,-0.100000)"
fill="#000000" stroke="none">
<path d="M3060 6779 c-119 -13 -309 -45 -431 -75 -158 -37 -321 -88 -326 -100
-3 -10 517 -1367 529 -1379 2 -3 49 7 104 20 124 32 263 55 332 55 l52 0 0
745 0 745 -87 -1 c-49 -1 -126 -6 -173 -10z"/>
<path d="M3530 6047 l0 -743 110 -12 c93 -11 298 -55 351 -77 10 -3 19 -1 22
7 42 104 527 1371 527 1377 0 9 -201 70 -349 105 -190 46 -474 86 -607 86
l-54 0 0 -743z"/>
<path d="M1894 6436 c-202 -101 -406 -229 -572 -359 -100 -78 -102 -80 -85
-100 135 -154 979 -1073 987 -1075 7 -1 33 13 59 33 66 50 189 126 277 170 41
21 77 39 78 40 9 8 -532 1385 -544 1385 -6 0 -97 -42 -200 -94z"/>
<path d="M4465 5834 c-147 -382 -266 -696 -264 -698 2 -2 50 -27 107 -57 56
-29 144 -84 195 -121 50 -37 99 -72 107 -77 12 -7 120 105 513 535 274 299
499 547 500 551 4 20 -273 225 -457 338 -98 60 -314 173 -398 208 l-36 15
-267 -694z"/>
<path d="M953 5743 c-134 -145 -213 -241 -309 -375 -73 -102 -218 -337 -212
-343 9 -8 1331 -666 1333 -663 1 2 20 30 40 63 50 79 114 162 199 258 l69 79
-35 36 c-19 20 -245 268 -502 550 -257 281 -468 512 -470 512 -2 0 -53 -53
-113 -117z"/>
<path d="M5280 5289 c-272 -297 -497 -545 -498 -550 -2 -5 21 -38 50 -72 68
-77 170 -215 205 -276 15 -25 28 -48 30 -50 6 -8 1333 654 1333 664 0 15 -135
235 -205 337 -104 148 -392 488 -414 488 -3 0 -229 -243 -501 -541z"/>
<path d="M280 4713 c-70 -169 -114 -299 -156 -463 -31 -119 -87 -410 -80 -417
2 -3 1441 -133 1468 -133 11 0 20 23 32 85 18 88 67 250 104 343 l22 52 -660
330 c-363 182 -664 330 -669 330 -5 0 -32 -57 -61 -127z"/>
<path d="M5827 4486 c-531 -263 -666 -333 -661 -346 30 -67 97 -283 112 -360
15 -79 21 -95 37 -97 26 -4 1454 132 1460 139 8 8 -34 247 -70 394 -39 159
-106 362 -167 504 -22 52 -41 95 -42 96 0 0 -301 -148 -669 -330z"/>
<path d="M23 3347 c3 -178 11 -324 21 -397 17 -119 64 -362 72 -370 3 -3 1409
394 1431 404 1 1 -7 53 -18 116 -11 62 -21 177 -24 254 l-4 141 -683 61 c-376
34 -709 64 -742 67 l-58 5 5 -281z"/>
<path d="M6013 3542 l-691 -66 -7 -136 c-4 -74 -15 -182 -25 -240 -9 -58 -16
-106 -15 -108 5 -5 1427 -413 1430 -410 7 7 56 263 71 368 9 71 18 220 21 388
l5 272 -48 -1 c-27 -1 -360 -31 -741 -67z"/>
<path d="M882 2585 c-387 -112 -705 -205 -707 -207 -6 -6 91 -262 144 -381 29
-64 82 -169 118 -234 73 -131 204 -334 214 -331 15 7 1178 894 1179 899 0 3
-25 48 -56 100 -59 97 -117 217 -149 307 -11 28 -24 51 -29 51 -6 -1 -327 -93
-714 -204z"/>
<path d="M5176 2691 c-33 -86 -106 -230 -156 -309 -11 -16 -12 -25 -4 -30 7
-4 271 -203 588 -442 317 -239 582 -436 589 -438 28 -6 253 390 343 604 60
145 115 302 106 308 -10 6 -1368 396 -1400 402 -26 5 -29 1 -66 -95z"/>
<path d="M4785 2087 c-55 -57 -137 -133 -182 -169 l-82 -65 385 -624 c212
-343 389 -628 394 -633 19 -19 277 183 464 364 124 120 306 322 306 339 0 8
-1150 878 -1172 886 -7 3 -58 -41 -113 -98z"/>
<path d="M1362 1718 l-592 -450 42 -51 c80 -98 303 -319 418 -416 113 -95 300
-231 316 -231 8 0 769 1223 779 1252 2 8 -29 38 -76 73 -45 33 -129 108 -188
167 l-107 106 -592 -450z"/>
<path d="M4232 1685 c-57 -28 -157 -70 -223 -91 -106 -34 -119 -41 -115 -59 2
-11 64 -339 137 -730 73 -390 133 -711 134 -712 4 -7 284 74 391 113 186 67
463 196 563 263 11 7 -68 142 -375 640 -214 347 -393 630 -399 630 -5 -1 -56
-25 -113 -54z"/>
<path d="M2116 1096 c-212 -344 -386 -630 -386 -635 0 -28 372 -201 590 -274
128 -43 379 -111 385 -105 4 4 275 1440 275 1455 0 6 -16 14 -36 17 -59 12
-212 66 -319 113 -55 24 -105 47 -111 49 -6 3 -183 -273 -398 -620z"/>
<path d="M3180 1502 c0 -5 -61 -333 -135 -727 -74 -395 -135 -721 -135 -725 0
-32 702 -50 895 -22 146 21 155 23 155 40 0 14 -253 1367 -265 1421 -6 23 -7
23 -93 16 -105 -9 -339 -8 -387 1 -21 4 -35 2 -35 -4z"/>
</g>
</svg>
