<?xml version="1.0" standalone="no"?>
<!DOCTYPE svg PUBLIC "-//W3C//DTD SVG 20010904//EN"
 "http://www.w3.org/TR/2001/REC-SVG-20010904/DTD/svg10.dtd">
<svg version="1.0" xmlns="http://www.w3.org/2000/svg"
 width="300.000000pt" height="300.000000pt" viewBox="0 0 300.000000 300.000000"
 preserveAspectRatio="xMidYMid meet">
<metadata>
Created by potrace 1.11, written by Peter Selinger 2001-2013
</metadata>
<g transform="translate(0.000000,300.000000) scale(0.100000,-0.100000)"
fill="#000000" stroke="none">
<path d="M1307 2994 c-1 -1 -24 -5 -52 -8 -62 -8 -220 -51 -289 -77 -57 -23
-193 -88 -245 -118 -49 -29 -201 -143 -201 -151 0 -7 597 -609 634 -639 12
-10 23 -8 58 12 39 23 123 56 155 61 7 1 15 5 19 8 4 5 9 781 5 901 -1 14 -9
17 -41 15 -22 -1 -42 -3 -43 -4z"/>
<path d="M1609 2821 c-2 -588 -1 -730 4 -739 4 -5 24 -12 44 -16 21 -3 69 -22
107 -41 54 -26 73 -32 83 -23 34 28 633 631 632 637 -1 12 -115 96 -201 149
-188 113 -401 186 -605 207 l-63 7 -1 -181z"/>
<path d="M303 2413 c-172 -228 -270 -473 -299 -745 l-6 -58 28 -1 c16 0 222 0
457 -1 300 0 432 3 440 11 6 6 8 11 5 11 -11 0 30 109 58 158 l26 45 -323 323
c-178 178 -326 324 -329 324 -4 0 -29 -30 -57 -67z"/>
<path d="M2312 2157 l-323 -323 35 -67 c19 -37 39 -89 45 -115 l12 -47 417 2
c229 1 436 2 460 2 l43 1 -5 58 c-15 178 -97 423 -199 597 -34 56 -149 214
-157 215 -3 0 -150 -145 -328 -323z"/>
<path d="M4 1328 c26 -241 125 -498 271 -703 47 -66 80 -105 87 -105 5 0 613
605 637 634 10 12 6 25 -18 68 -16 29 -37 79 -46 111 l-16 57 -461 0 -460 0 6
-62z"/>
<path d="M2065 1333 c-9 -32 -30 -82 -46 -112 -22 -42 -26 -57 -17 -68 28 -34
631 -633 637 -633 9 0 99 119 144 190 108 171 191 413 213 618 l6 62 -460 0
-461 0 -16 -57z"/>
<path d="M840 684 l-325 -325 30 -25 c95 -79 263 -177 405 -237 142 -60 439
-117 441 -85 0 7 0 213 1 457 0 473 2 460 -47 461 -11 0 -56 18 -100 40 -44
22 -80 40 -80 40 0 0 -146 -146 -325 -326z"/>
<path d="M1785 984 c-22 -13 -71 -34 -110 -47 l-70 -22 2 -440 c1 -242 2 -448
2 -459 1 -16 7 -18 59 -13 155 15 323 63 478 137 94 45 241 137 309 194 l30
25 -325 325 c-179 180 -327 326 -330 325 -3 0 -23 -12 -45 -25z"/>
</g>
</svg>
